<?xml version="1.0" encoding="UTF-8" standalone="no"?>
<!DOCTYPE svg PUBLIC "-//W3C//DTD SVG 1.1//EN" "http://www.w3.org/Graphics/SVG/1.1/DTD/svg11.dtd">
<svg width="100%" height="100%" viewBox="0 0 1080 1080" version="1.1" xmlns="http://www.w3.org/2000/svg" xmlns:xlink="http://www.w3.org/1999/xlink" xml:space="preserve" xmlns:serif="http://www.serif.com/" style="fill-rule:evenodd;clip-rule:evenodd;stroke-linejoin:round;stroke-miterlimit:2;">
    <g transform="matrix(3.22203,0,0,3.20727,-1061.15,-95.5595)">
        <g id="Light">
            <g>
                <g transform="matrix(4.16667,0,0,4.18583,628.699,273.605)">
                    <path d="M0,-6.825L-1.437,-8.225L-6.239,-12.904C-8.617,-1.004 -19.12,7.964 -31.72,7.964C-45.39,7.964 -56.587,-2.593 -57.621,-15.998L-57.628,-15.998C-57.66,-16.685 -57.669,-17.372 -57.664,-18.059L-54.702,-18.059L-63.246,-26.384L-71.802,-18.058L-69.282,-18.058C-69.287,-17.37 -69.279,-16.681 -69.246,-15.993L-69.245,-15.993C-68.187,3.79 -51.761,19.559 -31.72,19.559C-13.024,19.559 2.521,5.836 5.386,-12.066L1.438,-8.224L0,-6.825Z" style="fill:rgb(103,176,69);fill-rule:nonzero;"/>
                </g>
                <g transform="matrix(4.16667,0,0,4.18583,365.182,122.723)">
                    <path d="M0,6.785L1.437,8.186L6.082,12.712C8.533,0.907 18.992,-7.965 31.524,-7.965C45.182,-7.965 56.37,2.572 57.423,15.958L57.429,15.958C57.46,16.645 57.467,17.332 57.461,18.019L54.701,18.019L63.245,26.345L71.801,18.018L69.079,18.019C69.086,17.331 69.078,16.644 69.047,15.958L69.048,15.958C69.048,15.952 69.047,15.947 69.047,15.941C69.046,15.922 69.046,15.904 69.045,15.886L69.042,15.886C67.93,-3.846 51.53,-19.56 31.524,-19.56C12.766,-19.56 -2.826,-5.744 -5.613,12.247L-1.438,8.185L0,6.785Z" style="fill:rgb(103,176,69);fill-rule:nonzero;"/>
                </g>
                <g transform="matrix(4.16667,0,0,4.18583,563.847,298.604)">
                    <path d="M0,-35.361L0,-35.075C0.961,-35.074 1.698,-35.018 2.07,-34.982C1.937,-33.519 1.059,-26.462 -3.672,-22.493C-7.236,-19.502 -12.151,-18.984 -14.763,-18.942L-15.045,-18.937L-15.045,-10.287L-14.763,-10.284C-8.712,-10.203 -2.891,-9.599 2.112,-8.535C-2.424,-3.105 -9.033,0 -16.096,0C-23.166,0 -29.78,-3.11 -34.317,-8.55C-29.326,-9.606 -23.535,-10.205 -17.533,-10.284L-17.25,-10.288L-17.25,-18.937L-17.532,-18.942C-20.144,-18.984 -25.059,-19.502 -28.623,-22.493C-33.35,-26.459 -34.231,-33.518 -34.365,-34.982C-33.993,-35.018 -33.257,-35.075 -32.295,-35.075C-29.619,-35.075 -24.591,-34.623 -20.984,-31.596C-18.975,-29.91 -17.438,-27.476 -16.42,-24.361L-16.147,-23.528L-15.875,-24.361C-14.856,-27.476 -13.321,-29.91 -11.311,-31.596C-7.704,-34.623 -2.676,-35.075 0,-35.075L0,-35.361" style="fill:rgb(103,176,69);fill-rule:nonzero;"/>
                </g>
            </g>
        </g>
    </g>
</svg>
